<svg version="1.2" xmlns="http://www.w3.org/2000/svg" viewBox="0 0 255 378" width="255" height="378"><style>.a{fill:#a17e51;stroke:#000;stroke-miterlimit:100;stroke-width:2.5}.b{fill:#ba915d;stroke:#000;stroke-miterlimit:100;stroke-width:2.5}</style><path fill-rule="evenodd" class="a" d="m137.3 2v374.1h-19.8v-374.1z"/><path fill-rule="evenodd" class="b" d="m248.1 21.8v16.3l-10 1.2 10 2.8v25.3l-14.6 3.1 14.6 3.3v29.3h-246.1v-24.3l20.3-3.6-20.3-3.6v-16l9.8-6.5-9.8-0.8v-10.1l6.1-1.3-6.1-4.6v-10.5z"/><path fill-rule="evenodd" class="b" d="m252.6 112.9v23.1l-14.1 3.7 14.1 3.2v21.3l-13.1 2.5 13.1 3.3v20.9h-246.8v-33l11.5-3.7-11.5-3.7v-20.1l13.1-6.4-13.1 1.2v-12.3z"/></svg>