<svg version="1.2" xmlns="http://www.w3.org/2000/svg" viewBox="0 0 431 468" width="2560" height="2780">
	<title>RH UFO (2)</title>
	<style>
		tspan { white-space:pre } 
		.s0 { opacity: .7;fill: #f3eca5 } 
		.s1 { fill: #808080;stroke: #000000;stroke-miterlimit:100 } 
		.s2 { fill: #545454;stroke: #000000;stroke-miterlimit:100 } 
		.s3 { fill: #50334f;stroke: #000000;stroke-miterlimit:100 } 
		.s4 { fill: #38d765;stroke: #000000;stroke-miterlimit:100 } 
		.s5 { fill: none;stroke: #000000;stroke-miterlimit:100 } 
		.s6 { fill: #f4cc5a;stroke: #000000;stroke-miterlimit:100 } 
		.s7 { fill: #000000;stroke: #000000;stroke-miterlimit:100;stroke-width: .3 } 
		.s8 { fill: #000000;stroke: #000000;stroke-miterlimit:100 } 
		.s9 { fill: #332318;stroke: #000000;stroke-miterlimit:100 } 
		.s10 { fill: #503c31 } 
		.t11 { font-size: 64px;fill: #000000;font-weight: 1000;font-family: "Gota", "Gota" } 
		.t12 { font-size: 19px;fill: #000000;font-weight: 400;font-family: "LeagueSpartan-Regular", "League Spartan" } 
	</style>
	<path id="Beam" fill-rule="evenodd" class="s0" d="m2 452.2l127.7-336.1q-0.2-0.1-0.2-0.2c0-2.2 38.8-3.9 86.8-3.9 47.1 0 85.3 1.6 86.7 3.7h0.4l127.2 335.5q0.2 0.4 0.3 0.7l0.1 0.3h-0.1c-1.4 9-97.2 16.1-215.5 16.1-118.3 0-211.8-7.1-213.1-16.1z"/>
	<g id="Ship">
		<path id="Shape 2" fill-rule="evenodd" class="s1" d="m209 143.7c-56.9 0-103.8-18.5-103.8-38.5 0-19.9 49.3-48.2 106.2-48.2 56.8 0 106.6 25.2 106.6 45.2 0 20-52.1 41.5-109 41.5z"/>
		<path id="Shape 2 copy" fill-rule="evenodd" class="s2" d="m209.7 133.3c-56.9 0-104.5-8.1-104.5-28.1 0-19.9 49.3-48.2 106.2-48.2 56.8 0 106.6 25.2 106.6 45.2 0 20-51.5 31.1-108.3 31.1z"/>
		<path id="Shape 3" fill-rule="evenodd" class="s3" d="m210.6 97.8c-36.2 0-64.3-11-64.3-16.3 0-5.3 29.7-20.8 65.9-20.8 36.2 0 65.6 16.4 65.6 21.7 0 5.2-31 15.4-67.2 15.4z"/>
		<path id="Color Fill 3" class="s4" d="m205.4 80.7c0 0-6-2-6.3 16.3h2.5c0 0-0.1-8.2 1.3-8.6v8.6h11.5c0 0-2.7-3.3-2.6-8.6 0 0 3.7 3.8 4.5 8.6h2.5c0 0-4.1-13.2-10.8-16.3v-4.7h-2.6c0 0 0.3 1.4 0 4.7z"/>
		<path id="Shape 3 copy" fill-rule="evenodd" class="s5" d="m211.3 98c-36.4 0-65-9.7-65-16.6 0-45 29.4-81.4 65.8-81.4 36.4 0 65.8 36.4 65.8 81.4 0 8.3-30.2 16.6-66.6 16.6z"/>
		<path id="Shape 6 copy 5" fill-rule="evenodd" class="s6" d="m125 95.4c-0.8-1.5 0.6-3.8 3.2-5.1 2.5-1.3 5.2-1.1 5.9 0.4 0.8 1.6-0.6 3.8-3.1 5.1-2.6 1.3-5.2 1.1-6-0.4z"/>
		<path id="Shape 6 copy 6" fill-rule="evenodd" class="s6" d="m137.3 110.3c-1.1-1.3-0.3-3.9 1.8-5.7 2.2-1.9 4.8-2.4 5.9-1.1 1.2 1.3 0.3 3.8-1.8 5.7-2.2 1.9-4.8 2.3-5.9 1.1z"/>
		<path id="Shape 6 copy 7" fill-rule="evenodd" class="s6" d="m162 117.6c-1.3-1.1-0.8-3.8 1-5.9 1.9-2.2 4.4-3 5.7-1.9 1.3 1.1 0.9 3.7-1 5.9-1.8 2.1-4.4 3-5.7 1.9z"/>
		<path id="Shape 6 copy 8" fill-rule="evenodd" class="s6" d="m190.5 120.1c-1.6-0.6-2-3.3-1-5.9 1-2.7 3.1-4.3 4.7-3.7 1.6 0.6 2.1 3.2 1 5.9-1 2.6-3.1 4.3-4.7 3.7z"/>
		<path id="Shape 6 copy 9" fill-rule="evenodd" class="s6" d="m222.3 120.2c-1.7 0.1-3.2-2.1-3.4-4.9-0.2-2.9 1-5.2 2.7-5.3 1.8-0.1 3.3 2.1 3.4 4.9 0.2 2.8-1 5.2-2.7 5.3z"/>
		<path id="Shape 6 copy 10" fill-rule="evenodd" class="s6" d="m253 116.2c-1.7 0.5-3.6-1.3-4.4-4.1-0.8-2.7-0.1-5.3 1.5-5.8 1.7-0.4 3.6 1.4 4.4 4.1 0.8 2.8 0.1 5.3-1.5 5.8z"/>
		<path id="Shape 6 copy 11" fill-rule="evenodd" class="s6" d="m280.2 108.9c-1.5 0.9-3.8-0.4-5.3-2.8-1.4-2.5-1.4-5.1 0-6 1.5-0.9 3.8 0.4 5.3 2.8 1.5 2.4 1.5 5.1 0 6z"/>
		<path id="Shape 6 copy 12" fill-rule="evenodd" class="s6" d="m300.7 95.8c-1.2 1.2-3.8 0.7-5.9-1.3-2-1.9-2.7-4.5-1.6-5.7 1.2-1.3 3.8-0.7 5.9 1.2 2 2 2.8 4.6 1.6 5.8z"/>
	</g>
	<g id="Alien">
		<path id="Shape 10" fill-rule="evenodd" class="s4" d="m207.8 78.5c-8 0-14.5-9.6-14.5-21.4 0-11.8 6.5-21.4 14.5-21.4 8 0 14.4 9.6 14.4 21.4 0 11.8-6.4 21.4-14.4 21.4z"/>
		<path id="Shape 11" fill-rule="evenodd" class="s7" d="m208.7 73.3c-2.6-0.1-4.7-1.3-4.7-2.8 0.1-1.5 2.1 0.4 4.6 0.4 2.6 0.1 4.8-1.7 4.8-0.2-0.1 1.4-2.2 2.6-4.7 2.6z"/>
		<path id="Shape 11 copy 3" fill-rule="evenodd" class="s8" d="m204.7 62.2c0 0 0.8-3.9-0.6-6.1-1.5-2.2-3.6-3-4.7-1.9-1.1 1.2-0.8 3.9 0.7 6.1 1.4 2.2 4.6 1.9 4.6 1.9z"/>
		<path id="Shape 11 copy 2" fill-rule="evenodd" class="s8" d="m212.2 62.2c0 0-0.8-3.9 0.7-6.1 1.5-2.2 3.6-3 4.7-1.9 1.1 1.2 0.8 3.9-0.7 6.1-1.5 2.2-4.7 1.9-4.7 1.9z"/>
		<path id="Color Fill 1" class="s9" d="m188.2 37.1c0 0-1-3.1 1.9-1.2 3 1.9 5.3 2.8 8.6 2.6v-3.2l0.3-2.5c0 0 0-0.5 0.6-1.5 0.6-1 3.2-4.6 3.2-4.6l1-0.9c0 0 1.5-1.2 2.6-0.3 1.1 0.8 0.9 0.9 0.9 0.9 0 0 0.5 0.7 1.2 0 0.7-0.7 1.4-1.1 1.4-1.1 0 0 0.9-0.6 1.7-0.1 0.7 0.5 1.5 1.4 1.5 1.4l0.6 0.9c0 0 0.9 1.4 1.7 1.7 0 0 2.2 1.4 2.6 2.6 0.4 1.1 0.4 6.8 0.4 6.8v0.3c0 0 2.6-0.1 4-0.6 1.4-0.4 4.4-1.8 4.4-1.8 0 0 3-1.8 2.2 1.4-0.8 3.2-4.6 7.7-5.7 8.7-1 1-4.2 3.4-6.4 3.7-2.2 0.3-13.8 0.5-16.7 0-2.8-0.6-6.4-2.5-8.4-5.5-2-3.1-3.6-7.7-3.6-7.7z"/>
		<path id="Color Fill 2" class="s10" d="m198.7 38.5c0 0-0.4 0-0.5 0.4 0 0.5 0 1 0 1 0 0 0.2 0.3 0.8 0.4 0.6 0.1 8.6 0.2 8.6 0.2l5.9-0.1c0 0 4.1-0.2 4.8-0.4 0.7-0.2 1.1-0.4 1.1-0.4 0 0 0.1-1.3-0.4-1.3 0 0-0.3 0.2-0.9 0.5 0 0-0.6 0.3-4.3 0.3-1.8 0.1-5.6 0.2-5.6 0.2 0 0-6-0.1-8.5-0.1-0.8-0.1-1-0.7-1-0.7z"/>
	</g>
	<g id="Text">
		<text id="JOIN US" style="transform: matrix(.825,0,0,.888,214.554,276.602)" >
			<tspan x="-150.2" y="0" class="t11">J</tspan><tspan  y="0" class="t11">O</tspan><tspan  y="0" class="t11">I</tspan><tspan  y="0" class="t11">N</tspan><tspan  y="0" class="t11"> </tspan><tspan  y="0" class="t11">U</tspan><tspan  y="0" class="t11">S</tspan><tspan  y="0" class="t11">
</tspan>
		</text>
		<text id="Fall '25 @ UTSA's San Pedro I" style="transform: matrix(1.24,0,0,1,209.979,301.52)" >
			<tspan x="-112.7" y="0" class="t12">Fall '25 @ UTSA's San Pedro I
</tspan>
		</text>
	</g>
</svg>