<svg version="1.2" xmlns="http://www.w3.org/2000/svg" viewBox="0 0 800 800" width="800" height="800">
    <style>tspan{white-space:pre}.a{opacity:.7;fill:#f3eca5}.b{fill:#808080;stroke:#000;stroke-miterlimit:100}.c{fill:#545454;stroke:#000;stroke-miterlimit:100}.d{fill:#50334f;stroke:#000;stroke-miterlimit:100}.e{fill:#38d765;stroke:#000;stroke-miterlimit:100}.f{fill:none;stroke:#000;stroke-miterlimit:100}.g{stroke:#000;stroke-miterlimit:100;stroke-width:.3}.h{stroke:#000;stroke-miterlimit:100}.i{fill:#332318;stroke:#000;stroke-miterlimit:100}.j{fill:#503c31}.k{fill:#f4cc5a;stroke:#000;stroke-miterlimit:100}.l{font-size:
        62px;fill: #000000;font-weight: 1000;font-family: "Gota", "Gota"}.m{font-size: 19px;fill:
        #000000;font-weight: 400;font-family: "League Spartan", "League Spartan"}</style>
    <path fill-rule="evenodd" class="a"
        d="m413.6 250.7l127.9 336.5h-0.6c-1.4 9-97.2 16.1-215.5 16.1-119.1 0-215.4-7.2-215.4-16.3 0-0.9 1.1-1.8 3.1-2.7l126.6-333.2q-0.2-0.1-0.2-0.2c0-2.2 38.8-3.9 86.8-3.9 47.1 0 85.3 1.6 86.7 3.7z" />
    <path fill-rule="evenodd" class="b"
        d="m319 278.7c-56.9 0-103.8-18.5-103.8-38.5 0-19.9 49.3-48.2 106.2-48.2 56.8 0 106.6 25.2 106.6 45.2 0 20-52.1 41.5-109 41.5z" />
    <path fill-rule="evenodd" class="c"
        d="m319.7 268.3c-56.9 0-104.5-8.1-104.5-28.1 0-19.9 49.3-48.2 106.2-48.2 56.8 0 106.6 25.2 106.6 45.2 0 20-51.5 31.1-108.3 31.1z" />
    <path fill-rule="evenodd" class="d"
        d="m320.6 232.8c-36.2 0-64.3-11-64.3-16.3 0-5.3 29.7-20.8 65.9-20.8 36.2 0 65.6 16.4 65.6 21.7 0 5.2-31 15.4-67.2 15.4z" />
    <path class="e"
        d="m315.4 215.7c0 0-6-2-6.3 16.3h2.5c0 0-0.1-8.2 1.3-8.6v8.6h11.5c0 0-2.7-3.3-2.6-8.6 0 0 3.7 3.8 4.5 8.6h2.5c0 0-4.1-13.2-10.8-16.3v-4.7h-2.6c0 0 0.3 1.4 0 4.7z" />
    <path fill-rule="evenodd" class="f"
        d="m321.3 233c-36.4 0-65-9.7-65-16.6 0-45 29.4-81.4 65.8-81.4 36.4 0 65.8 36.4 65.8 81.4 0 8.3-30.2 16.6-66.6 16.6z" />
    <path fill-rule="evenodd" class="e"
        d="m317.8 213.5c-8 0-14.5-9.6-14.5-21.4 0-11.8 6.5-21.4 14.5-21.4 8 0 14.4 9.6 14.4 21.4 0 11.8-6.4 21.4-14.4 21.4z" />
    <path fill-rule="evenodd" class="g"
        d="m318.7 208.3c-2.6-0.1-4.7-1.3-4.7-2.8 0.1-1.5 2.1 0.4 4.6 0.4 2.6 0.1 4.8-1.7 4.8-0.2-0.1 1.4-2.2 2.6-4.7 2.6z" />
    <path fill-rule="evenodd" class="h"
        d="m314.7 197.2c0 0 0.8-3.9-0.6-6.1-1.5-2.2-3.6-3-4.7-1.9-1.1 1.2-0.8 3.9 0.7 6.1 1.4 2.2 4.6 1.9 4.6 1.9z" />
    <path fill-rule="evenodd" class="h"
        d="m322.2 197.2c0 0-0.8-3.9 0.7-6.1 1.5-2.2 3.6-3 4.7-1.9 1.1 1.2 0.8 3.9-0.7 6.1-1.5 2.2-4.7 1.9-4.7 1.9z" />
    <path class="i"
        d="m298.2 172.1c0 0-1-3.1 1.9-1.2 3 1.9 5.3 2.8 8.6 2.6v-3.2l0.3-2.5c0 0 0-0.5 0.6-1.5 0.6-1 3.2-4.6 3.2-4.6l1-0.9c0 0 1.5-1.2 2.6-0.3 1.1 0.8 0.9 0.9 0.9 0.9 0 0 0.5 0.7 1.2 0 0.7-0.7 1.4-1.1 1.4-1.1 0 0 0.9-0.6 1.7-0.1 0.7 0.5 1.5 1.4 1.5 1.4l0.6 0.9c0 0 0.9 1.4 1.7 1.7 0 0 2.2 1.4 2.6 2.6 0.4 1.1 0.4 6.8 0.4 6.8v0.3c0 0 2.6-0.1 4-0.6 1.4-0.4 4.4-1.8 4.4-1.8 0 0 3-1.8 2.2 1.4-0.8 3.2-4.6 7.7-5.7 8.7-1 1-4.2 3.4-6.4 3.7-2.2 0.3-13.8 0.5-16.7 0-2.8-0.6-6.4-2.5-8.4-5.5-2-3.1-3.6-7.7-3.6-7.7z" />
    <path class="j"
        d="m308.7 173.5c0 0-0.4 0-0.5 0.4 0 0.5 0 1 0 1 0 0 0.2 0.3 0.8 0.4 0.6 0.1 8.6 0.2 8.6 0.2l5.9-0.1c0 0 4.1-0.2 4.8-0.4 0.7-0.2 1.1-0.4 1.1-0.4 0 0 0.1-1.3-0.4-1.3 0 0-0.3 0.2-0.9 0.5 0 0-0.6 0.3-4.3 0.3-1.8 0.1-5.6 0.2-5.6 0.2 0 0-6-0.1-8.5-0.1-0.8-0.1-1-0.7-1-0.7z" />
    <path fill-rule="evenodd" class="k"
        d="m235 230.4c-0.8-1.5 0.6-3.8 3.2-5.1 2.5-1.3 5.2-1.1 5.9 0.4 0.8 1.6-0.6 3.8-3.1 5.1-2.6 1.3-5.2 1.1-6-0.4z" />
    <path fill-rule="evenodd" class="k"
        d="m247.3 245.3c-1.1-1.3-0.3-3.9 1.8-5.7 2.2-1.9 4.8-2.4 5.9-1.1 1.2 1.3 0.3 3.8-1.8 5.7-2.2 1.9-4.8 2.3-5.9 1.1z" />
    <path fill-rule="evenodd" class="k"
        d="m272 252.6c-1.3-1.1-0.8-3.8 1-5.9 1.9-2.2 4.4-3 5.7-1.9 1.3 1.1 0.9 3.7-1 5.9-1.8 2.1-4.4 3-5.7 1.9z" />
    <path fill-rule="evenodd" class="k"
        d="m300.5 255.1c-1.6-0.6-2-3.3-1-5.9 1-2.7 3.1-4.3 4.7-3.7 1.6 0.6 2.1 3.2 1 5.9-1 2.6-3.1 4.3-4.7 3.7z" />
    <path fill-rule="evenodd" class="k"
        d="m332.3 255.2c-1.7 0.1-3.2-2.1-3.4-4.9-0.2-2.9 1-5.2 2.7-5.3 1.8-0.1 3.3 2.1 3.4 4.9 0.2 2.8-1 5.2-2.7 5.3z" />
    <path fill-rule="evenodd" class="k"
        d="m363 251.2c-1.7 0.5-3.6-1.3-4.4-4.1-0.8-2.7-0.1-5.3 1.5-5.8 1.7-0.4 3.6 1.4 4.4 4.1 0.8 2.8 0.1 5.3-1.5 5.8z" />
    <path fill-rule="evenodd" class="k"
        d="m390.2 243.9c-1.5 0.9-3.8-0.4-5.3-2.8-1.4-2.5-1.4-5.1 0-6 1.5-0.9 3.8 0.4 5.3 2.8 1.5 2.4 1.5 5.1 0 6z" />
    <path fill-rule="evenodd" class="k"
        d="m410.7 230.8c-1.2 1.2-3.8 0.7-5.9-1.3-2-1.9-2.7-4.5-1.6-5.7 1.2-1.3 3.8-0.7 5.9 1.2 2 2 2.8 4.6 1.6 5.8z" />
    <text style="transform:matrix(1,0,0,1,171,410.993)">
        <tspan x="12.1" y="0" class="l">J</tspan>
        <tspan y="0" class="l">O</tspan>
        <tspan y="0" class="l">I</tspan>
        <tspan y="0" class="l">N</tspan>
        <tspan y="0" class="l"> </tspan>
        <tspan y="0" class="l">U</tspan>
        <tspan y="0" class="l">S</tspan>
        <tspan y="0" class="l">
</tspan>
    </text>
    <text style="transform:matrix(1,0,0,1,178,440.993)">
        <tspan x="6.7" y="0" class="m">Fall '25 @ UTSA's San Pedro I
</tspan>
    </text>
</svg>